PathFileType	4	(X/Y/Z)	Kaydara	
DataRate	CameraRate	NumFrames	NumMarkers	Units	OrigDataRate	OrigDataStartFrame	OrigNumFrames	
240.00	240.00	4	72	mm	240.00	89	355	
Frame#	Time	Hips			RightUpLeg			RightLeg			RightFoot			RightFoot_End			LeftUpLeg			LeftLeg			LeftFoot			LeftFoot_End			Spine			Spine1			Spine2			Spine3			Neck			Head			Head_End			RightShoulder			RightArm			RightForeArm			RightHand			RightHandThumb1			RightHandThumb2			RightHandThumb3			RightHandThumb3_End			RightInHandIndex			RightHandIndex1			RightHandIndex2			RightHandIndex3			RightHandIndex3_End			RightInHandMiddle			RightHandMiddle1			RightHandMiddle2			RightHandMiddle3			RightHandMiddle3_End			RightInHandRing			RightHandRing1			RightHandRing2			RightHandRing3			RightHandRing3_End			RightInHandPinky			RightHandPinky1			RightHandPinky2			RightHandPinky3			RightHandPinky3_End			LeftShoulder			LeftArm			LeftForeArm			LeftHand			LeftHandThumb1			LeftHandThumb2			LeftHandThumb3			LeftHandThumb3_End			LeftInHandIndex			LeftHandIndex1			LeftHandIndex2			LeftHandIndex3			LeftHandIndex3_End			LeftInHandMiddle			LeftHandMiddle1			LeftHandMiddle2			LeftHandMiddle3			LeftHandMiddle3_End			LeftInHandRing			LeftHandRing1			LeftHandRing2			LeftHandRing3			LeftHandRing3_End			LeftInHandPinky			LeftHandPinky1			LeftHandPinky2			LeftHandPinky3			LeftHandPinky3_End			
		X1	Y1	Z1	X2	Y2	Z2	X3	Y3	Z3	X4	Y4	Z4	X5	Y5	Z5	X6	Y6	Z6	X7	Y7	Z7	X8	Y8	Z8	X9	Y9	Z9	X10	Y10	Z10	X11	Y11	Z11	X12	Y12	Z12	X13	Y13	Z13	X14	Y14	Z14	X15	Y15	Z15	X16	Y16	Z16	X17	Y17	Z17	X18	Y18	Z18	X19	Y19	Z19	X20	Y20	Z20	X21	Y21	Z21	X22	Y22	Z22	X23	Y23	Z23	X24	Y24	Z24	X25	Y25	Z25	X26	Y26	Z26	X27	Y27	Z27	X28	Y28	Z28	X29	Y29	Z29	X30	Y30	Z30	X31	Y31	Z31	X32	Y32	Z32	X33	Y33	Z33	X34	Y34	Z34	X35	Y35	Z35	X36	Y36	Z36	X37	Y37	Z37	X38	Y38	Z38	X39	Y39	Z39	X40	Y40	Z40	X41	Y41	Z41	X42	Y42	Z42	X43	Y43	Z43	X44	Y44	Z44	X45	Y45	Z45	X46	Y46	Z46	X47	Y47	Z47	X48	Y48	Z48	X49	Y49	Z49	X50	Y50	Z50	X51	Y51	Z51	X52	Y52	Z52	X53	Y53	Z53	X54	Y54	Z54	X55	Y55	Z55	X56	Y56	Z56	X57	Y57	Z57	X58	Y58	Z58	X59	Y59	Z59	X60	Y60	Z60	X61	Y61	Z61	X62	Y62	Z62	X63	Y63	Z63	X64	Y64	Z64	X65	Y65	Z65	X66	Y66	Z66	X67	Y67	Z67	X68	Y68	Z68	X69	Y69	Z69	X70	Y70	Z70	X71	Y71	Z71	X72	Y72	Z72	

89	0.367	-78.98710000000028	906.651	56.2195	-2.8174699999999575	891.00465	4.29299	-64.67470000000048	485.13428	-77.97994	-83.81456999999955	104.27084999999998	-156.82290000000003	-158.2999800000007	28.69299000000001	2.1693	-147.49089000000004	893.3523	119.45024	-213.60091999999986	490.13702	211.73082000000002	-248.34290000000055	58.776690000000016	299.98551999999995	-380.93155000000024	-15.553400000000002	184.08082	-115.65995000000021	1035.8835199999999	6.921499999999999	-159.66880000000037	1106.6552500000003	-43.06474	-210.36224000000038	1174.7494900000002	-98.0538	-265.96875999999975	1230.00487	-155.49945	-326.05562999999984	1289.1553600000002	-216.03611000000004	-382.12781000000086	1342.88399	-270.12408000000005	-501.84915999999976	1437.27298	-317.00442	-283.5744999999997	1270.87336	-217.26579	-228.56732999999986	1258.6312499999995	-331.09651	-210.7104500000005	996.1478900000001	-296.38734	-200.55764	745.6237899999999	-229.06186000000005	-188.1627900000003	711.58359	-245.93059000000005	-203.52392999999938	680.05173	-257.1571	-216.44069000000036	658.32494	-261.1073	-229.10737000000063	640.41074	-261.09148	-192.70636999999988	708.49637	-233.11002	-198.79123000000072	656.0617	-227.12767	-215.17603000000054	623.8229400000001	-225.64983000000004	-229.7518399999999	609.9930200000001	-229.82001000000002	-244.7770300000002	602.73681	-236.70432	-199.10815999999977	711.15446	-222.92569	-208.5024000000003	661.4478100000002	-211.58122	-227.22162000000026	626.7950199999999	-208.64756	-245.20997999999963	610.36222	-213.04481000000004	-261.8462499999996	602.5453599999998	-220.26932999999997	-203.36808999999994	714.3183700000001	-215.82939000000005	-215.17015999999967	672.3654200000002	-199.34512	-232.33099000000038	642.7785799999999	-195.45637000000002	-250.13098999999966	627.2553399999999	-198.99064	-265.98596	620.0607299999999	-205.44838	-208.94968000000063	719.8942900000001	-208.24718000000001	-222.85621999999967	684.66115	-188.27124	-237.86574999999993	662.11449	-183.1518499999999	-251.4624100000001	651.34584	-184.75967999999997	-265.8602799999999	645.29146	-189.92187999999996	-329.2745299999997	1268.7184000000002	-173.08725	-400.92911000000004	1216.75797	-80.03770999999999	-254.13962999999967	1005.7221400000001	-142.75584000000003	-115.0037999999995	789.8582399999999	-176.42786999999998	-130.53232000000025	782.29255	-212.46323999999998	-117.72972000000027	774.4514699999999	-246.09161999999998	-106.06134999999995	766.2364200000001	-267.32512999999994	-93.97912999999971	757.03145	-283.15713000000005	-124.28890000000047	770.62475	-208.05595	-118.74348999999984	735.7752299999999	-247.767	-103.13666000000012	717.3959499999999	-274.75983	-89.6581099999994	714.1410100000002	-289.8874599999999	-75.95500999999967	716.9588199999998	-301.29305999999997	-116.4368000000004	764.62496	-200.69959000000006	-106.78412000000026	727.3868300000001	-235.45369000000002	-88.72122000000036	706.66009	-263.80797000000007	-71.96424000000025	702.41103	-281.53091	-56.72964000000047	705.3376399999999	-293.75403	-111.13098999999966	761.1908500000001	-194.48911	-98.16757000000052	724.58955	-220.24496000000002	-81.3823999999995	705.8975499999999	-243.7793	-64.66587000000072	701.4663099999999	-260.24818	-50.07941000000028	704.0604100000002	-271.44418	-104.38715999999931	758.90869	-186.17962999999997	-88.67404000000079	723.6362299999997	-204.69327000000004	-73.66406999999981	707.8512	-221.58645000000004	-60.71196999999938	704.2237399999999	-232.65453999999994	-47.35393000000022	706.2942000000002	-242.02888999999996
90	0.371	-78.98710000000028	906.651	56.2195	-2.4503100000001723	891.2992699999999	4.746910000000001	-64.31761000000006	485.47975999999994	-77.76894999999999	-83.78533000000061	104.64479999999999	-156.66916000000003	-158.2835100000002	29.086450000000006	2.32633	-147.87050999999974	893.04431	118.97047000000003	-213.90804000000026	489.84324999999995	211.36502000000002	-248.44707000000017	58.52096	299.8849	-381.0582199999999	-15.763330000000002	183.97659000000002	-115.61187999999947	1035.9350500000005	7.020979999999999	-159.5610999999999	1106.75977	-42.94266999999999	-210.1734600000009	1174.9140400000003	-97.93204000000003	-265.6505500000003	1230.2455100000002	-155.42957000000004	-325.6003899999996	1289.4812500000003	-216.01871	-381.5499200000004	1343.2840400000002	-270.1599399999999	-501.2056899999998	1437.7066499999999	-317.1399	-282.99193000000014	1271.48411	-217.02446999999998	-226.84871999999996	1261.02785	-330.47798	-207.02567	998.47315	-297.41462999999993	-195.47743000000082	747.6679299999998	-231.37294	-182.05351999999948	713.92572	-248.05177999999998	-196.5581199999997	682.16906	-259.7730700000001	-208.9777099999992	660.22989	-264.12354000000005	-221.31487000000016	642.0908599999999	-264.48907999999994	-186.85789999999997	710.7046599999999	-235.35985999999997	-192.14051999999992	658.1449100000001	-229.72292000000002	-207.9713899999997	625.6108800000001	-228.77199	-222.18656999999985	611.5383000000002	-233.35486000000003	-236.9022700000005	604.04137	-240.63816	-193.5579399999997	713.2053300000002	-225.32867	-202.33103000000028	663.2916	-214.4038299999999	-220.48775999999998	628.2959899999998	-212.06459	-238.0611600000002	611.56054	-216.96907000000002	-254.3685999999998	603.4754800000001	-224.63468000000003	-198.04950000000008	716.2629500000002	-218.32925000000003	-209.49726999999984	674.03719	-202.29794	-226.21170999999958	644.13077	-198.94652	-243.6347399999995	628.3045600000002	-202.98026999999993	-259.1915600000002	620.85254	-209.85758999999996	-203.9177899999995	721.7063899999999	-210.86823	-217.67735999999968	686.1471100000001	-191.37424999999996	-232.39941	663.3133199999999	-186.71318999999997	-245.75495000000046	652.3085699999999	-188.6989	-259.9081900000001	646.01747	-194.24060999999995	-329.05426999999963	1268.6867	-173.26016000000004	-401.34979999999996	1215.4034800000002	-81.4629	-251.94302000000062	1006.60413	-145.47292	-108.48708999999963	793.58892	-179.15862000000004	-123.2476000000006	787.6069399999998	-215.80920000000003	-109.73910999999953	781.08772	-249.44367000000003	-97.64173000000028	773.68955	-270.73733999999996	-85.25537000000077	765.07692	-286.66733000000005	-117.16003999999975	775.73144	-211.75257	-110.90216000000055	742.5201000000001	-252.74102999999994	-94.7884699999995	725.1817299999998	-280.12192999999996	-80.99305000000004	722.4768699999998	-295.07123	-67.02650999999969	725.6844700000001	-306.04618999999997	-109.50236000000041	769.3880200000001	-204.48003000000008	-99.25993000000017	733.5618700000001	-240.52555000000004	-80.67187999999987	713.9202	-269.30958999999996	-63.54603000000043	710.31041	-286.82039000000003	-48.02970000000005	713.6516799999998	-298.5737700000001	-104.35248000000047	765.66998	-198.30186	-90.99697000000015	730.08955	-225.25985	-73.78357999999935	712.2891699999999	-249.1731	-56.72690999999941	708.4458	-265.43965000000003	-41.88296999999966	711.4161700000001	-276.19507	-97.8060000000005	763.0079599999999	-189.94769000000002	-81.85597000000053	728.4403800000001	-209.55590999999998	-66.55082000000039	713.28041	-226.75398	-53.373709999999846	710.03874	-237.67520999999996	-39.80087000000003	712.41776	-246.65967999999998
91	0.375	-78.98710000000028	906.651	56.2195	-2.1008199999996577	891.59558	5.182079999999999	-63.72031000000061	485.7681399999999	-77.48008999999999	-83.49089000000004	104.96353	-156.45143	-157.98729999999978	29.402879999999996	2.5438100000000006	-148.22737000000052	892.7355500000001	118.50831	-214.2772100000002	489.53255000000007	210.88556	-248.84999999999945	58.20525	299.36788999999993	-381.45812000000024	-16.086510000000004	183.46090000000004	-115.58600999999999	1035.9824	7.126289999999999	-159.4884600000005	1106.8571700000002	-42.80749000000001	-210.03197	1175.06887	-97.78899	-265.3894500000006	1230.47515	-155.32975000000002	-325.21263	1289.7951199999998	-215.96165000000002	-381.0486200000005	1343.6715299999998	-270.14687	-500.65119999999933	1438.1328299999996	-317.18444000000005	-282.4796099999994	1272.0845500000003	-216.74522000000002	-225.22782000000007	1263.4256599999997	-329.79542000000004	-203.39832000000024	1000.82848	-298.37405000000007	-190.28045999999995	749.67823	-233.95665	-175.8233199999995	716.2690400000001	-250.44114	-189.44304999999986	684.3131000000001	-262.67135999999994	-201.34515999999985	662.17398	-267.43572000000006	-213.33541999999943	643.8159399999997	-268.1971700000001	-180.88829999999962	712.89796	-237.89029	-185.3503899999996	660.2234600000002	-232.62762000000006	-200.60285999999996	627.40296	-232.22712000000004	-214.43760999999995	613.0975900000001	-237.23386999999994	-228.82438000000002	605.3710899999999	-244.92310999999995	-187.8851399999994	715.2264499999999	-228.02160000000003	-196.01846000000023	665.10772	-217.54963999999998	-213.58586000000014	629.7769	-215.83160999999998	-230.7203499999996	612.7497400000001	-221.25736	-246.67763000000014	604.4082199999999	-229.37194999999997	-192.60789000000022	718.1670100000001	-221.12496000000002	-203.68462	675.6608400000001	-205.58148	-219.92913000000044	645.43945	-202.79186999999993	-236.95202999999947	629.3197600000001	-207.33923999999996	-252.1906200000003	621.62086	-214.64383000000007	-198.76202000000012	723.4656799999999	-213.79108999999994	-212.35909999999967	687.5655300000001	-194.81473000000003	-226.77469999999994	664.44517	-190.63321000000002	-239.8721799999994	653.2097399999999	-193.00789999999995	-253.76296000000002	646.6903800000002	-198.93635000000006	-328.8915900000002	1268.64179	-173.39830999999995	-401.80317000000014	1214.0301800000002	-82.87783999999999	-246.12032	1010.81334	-149.83003999999994	-92.59803000000011	804.8431400000001	-182.95098000000004	-105.8438099999994	801.7578699999999	-220.52693	-90.98821000000044	797.4271300000001	-253.94568	-78.08874000000014	791.36143	-275.18976999999995	-65.15012000000024	783.6957100000001	-291.16451000000006	-100.10902000000078	789.518	-217.08601	-92.5625799999998	759.22055	-260.06652	-75.5307499999999	743.60707	-287.92544	-61.14191000000028	741.73827	-302.43683	-46.66895000000022	745.4784999999999	-312.55348	-92.86522000000059	782.53764	-209.9747	-81.58983999999964	749.20917	-248.05066000000008	-62.05868999999984	731.3558200000001	-277.3699899999999	-44.24510000000009	728.70967	-294.3590400000001	-28.188360000000102	732.61183	-305.17646999999994	-88.04148000000077	778.2976399999999	-203.86988000000002	-74.04585000000043	744.50957	-232.74128000000005	-56.07211999999981	728.16798	-257.13176	-38.384829999999965	725.2010600000002	-272.9006999999999	-23.048289999999724	728.6736700000002	-282.77878	-81.9015300000001	774.9307	-195.46157	-65.61743999999999	741.5814699999999	-216.82653	-49.802450000000135	727.4259400000001	-234.41496	-36.213260000000446	724.74437	-244.97721000000007	-22.231630000000223	727.52271	-253.18679000000003
92	0.379	-78.98710000000028	906.651	56.2195	-1.7726800000000367	891.87601	5.59721	-63.130560000000514	486.03987	-77.21667000000001	-83.15984000000026	105.26075999999999	-156.24576	-157.65355999999974	29.69281	2.74726	-148.5625600000003	892.4432000000003	118.06724999999999	-214.6227199999994	489.23664999999994	210.42165	-249.23063000000002	57.90221	298.85540000000003	-381.8290700000007	-16.40482	182.94712000000007	-115.5611600000002	1036.0278300000002	7.22757	-159.42673000000013	1106.9495699999998	-42.67192	-209.9130500000001	1175.2152000000003	-97.63901999999999	-265.1636699999999	1230.69283	-155.21371999999997	-324.8738200000007	1290.09332	-215.87821	-380.6084899999996	1344.03994	-270.09787	-500.11712999999963	1438.55991	-317.25621	-282.01886000000013	1272.6713900000002	-216.44263	-223.6879600000002	1265.81047	-329.06379	-199.7811300000003	1003.2063599999999	-299.25353000000007	-184.9669299999996	751.6847100000001	-236.67934	-169.45517000000018	718.6527799999999	-252.96425999999997	-182.14223000000038	686.5134900000002	-265.70637999999997	-193.49135000000024	664.1789699999999	-270.88970000000006	-205.1031499999999	645.6001000000001	-272.05385999999993	-174.77224999999999	715.1136000000002	-240.56486	-178.3532699999996	662.3341800000001	-235.69487	-192.9771499999997	629.2267800000001	-235.85685999999998	-206.40236000000004	614.6889500000001	-241.29072000000005	-220.4375200000004	606.73357	-249.38569000000007	-182.06151000000045	717.2514	-230.86614000000003	-189.49364999999943	666.92724	-220.86903999999998	-206.41654000000017	631.25828	-219.78632000000002	-223.07681999999932	613.9386300000001	-225.73767999999998	-238.6590299999998	605.34081	-234.30123999999995	-187.01396000000022	720.0616299999999	-224.07712	-197.6634699999995	677.26319	-209.04545000000002	-213.38966000000073	646.7217400000001	-206.83084	-229.9782099999993	630.30647	-211.89649999999997	-244.8750799999998	622.36021	-219.62858000000003	-193.45352000000003	725.19966	-216.87521	-206.8364900000006	688.9381099999999	-198.44152999999997	-220.9066700000003	665.52318	-194.75141999999994	-233.7210100000002	654.05364	-197.51914	-247.32846999999947	647.3044999999998	-203.83490000000003	-328.76586000000043	1268.5814800000005	-173.51397	-402.2572199999995	1212.6278000000002	-84.29128	-242.7480599999999	1013.0270000000002	-153.08941000000002	-83.36113999999998	811.4813199999999	-185.72310000000004	-95.69102000000021	810.23827	-223.71454999999997	-80.05396000000019	807.1491600000002	-256.91391	-66.70510000000013	801.82457	-278.07890000000003	-53.472929999999906	794.6709999999999	-294.0507400000001	-90.21555999999964	797.7753999999999	-220.67506999999995	-82.00201000000015	769.2741100000001	-264.74799	-64.48706000000038	754.6389499999999	-292.83753	-49.76205000000027	753.19053	-307.0568	-34.98667999999998	757.15201	-316.63791000000003	-83.25193000000036	790.38359	-213.70098999999996	-71.47742000000017	758.5845800000001	-252.91683999999998	-51.45818999999938	741.73831	-282.50172999999995	-33.25778999999966	739.57031	-299.14501000000007	-16.8792799999992	743.70046	-309.37970000000007	-78.64381999999932	785.80938	-207.67133	-64.39004999999997	753.1086300000002	-237.64731999999998	-46.03165999999965	737.58059	-262.2816	-27.99290000000019	735.0407799999999	-277.72357000000005	-12.364080000000286	738.71158	-287.0568400000001	-72.76639000000068	781.98701	-199.27011999999996	-56.40944000000036	749.36263	-221.67332	-40.35113000000001	735.7535999999999	-239.47139000000004	-26.536869999999908	733.3327900000002	-249.80211000000003	-12.314320000000407	736.2574899999998	-257.53308
